<svg version="1.1" xmlns="http://www.w3.org/2000/svg" viewBox="0 0 967.140625 887.30859375" width="967.140625" height="887.30859375">
  <!-- svg-source:excalidraw -->
  
  <defs>
    <style>
      @font-face {
        font-family: "Virgil";
        src: url("https://excalidraw.com/Virgil.woff2");
      }
      @font-face {
        font-family: "Cascadia";
        src: url("https://excalidraw.com/Cascadia.woff2");
      }
    </style>
  </defs>
  <rect x="0" y="0" width="967.140625" height="887.30859375" fill="#ffffff"></rect><g stroke-linecap="round" transform="translate(62.13671875 272.4375) rotate(0 154.802734375 136.01757812500003)"><path d="M0 -1.33 C105.07 2.23, 213.17 0.83, 311.01 -1.02 M0.39 -0.29 C88.71 1.45, 178.7 1.57, 309.13 0.13 M308.43 -0.33 C309.13 95.9, 308.9 192.75, 309.15 271.9 M309.71 0.04 C311.62 79.03, 311.38 157.65, 309.08 272.66 M309.92 272.19 C221.93 270.71, 136.24 272.59, 1.34 272 M310.31 272.09 C209.93 271.39, 110 271.09, 0.49 272.04 M1.18 271.7 C2.18 182.4, 1.21 91.84, -1.34 -0.58 M0.55 271.59 C-2.38 204.31, -1.48 135.47, -0.73 -0.41" stroke="#000000" stroke-width="1" fill="none"></path></g><g stroke-linecap="round" transform="translate(552.03125 273.08203125) rotate(0 101.4140625 95.734375)"><path d="M-0.39 1.31 C51.29 -1.18, 101.53 -2.92, 202.16 -0.89 M-0.51 -0.79 C77.41 -1.04, 153.53 -2.13, 202.36 -0.81 M202.56 -1.26 C205.89 60.54, 202.96 122.28, 204.21 189.64 M203.23 0.02 C204.81 52.52, 205.1 107.02, 201.85 191.14 M202.99 190.33 C159.85 191.42, 120.46 191.79, 0.1 191.02 M203.18 192.16 C143.88 192.12, 84.2 192.4, -0.71 190.91 M0.51 189.59 C-0.48 130.13, 0.71 67.33, -1.9 0.49 M0.57 191.05 C-1.78 124.63, -1.92 57.27, -0.01 0.69" stroke="#000000" stroke-width="1" fill="none"></path></g><g transform="translate(69.23828125 241.5390625) rotate(0 78.5 12.5)"><text x="0" y="18" font-family="Virgil, Segoe UI Emoji" font-size="20px" fill="#000000" text-anchor="start" style="white-space: pre;" direction="ltr">Hosting-Provider</text></g><g transform="translate(73.2578125 287.578125) rotate(0 101.5 12.5)"><text x="0" y="18" font-family="Virgil, Segoe UI Emoji" font-size="20px" fill="#000000" text-anchor="start" style="white-space: pre;" direction="ltr">http://oktopoden.de/</text></g><g stroke-linecap="round" transform="translate(98.609375 363.890625) rotate(0 119 72.5)"><path d="M0.56 -0.22 C82.9 -2.05, 168.37 1.17, 238.63 1.08 M-0.82 -0.69 C76.27 1.66, 153.48 2.04, 238.83 -0.44 M236.94 -0.12 C238.63 28.73, 239.14 59.98, 237.04 143.13 M237.19 -0.84 C237.73 46.26, 238.45 91.99, 238.41 144.84 M237.25 146.09 C190.12 144.27, 141.44 145.65, -1.17 144.49 M238 145.48 C174.55 146.73, 110.85 146.69, -0.25 144.94 M1.93 145.28 C1.38 86.14, 1.93 32.04, -1.26 -1.32 M0.15 144.75 C1.25 109.75, 0.51 73.23, 0.59 0.11" stroke="#000000" stroke-width="1" fill="none"></path></g><g transform="translate(140.109375 386.390625) rotate(0 77.5 50)"><text x="77.5" y="18" font-family="Virgil, Segoe UI Emoji" font-size="20px" fill="#000000" text-anchor="middle" style="white-space: pre;" direction="ltr">index.html</text><text x="77.5" y="43" font-family="Virgil, Segoe UI Emoji" font-size="20px" fill="#000000" text-anchor="middle" style="white-space: pre;" direction="ltr">contact.html</text><text x="77.5" y="68" font-family="Virgil, Segoe UI Emoji" font-size="20px" fill="#000000" text-anchor="middle" style="white-space: pre;" direction="ltr">produkte/p1.html</text><text x="77.5" y="93" font-family="Virgil, Segoe UI Emoji" font-size="20px" fill="#000000" text-anchor="middle" style="white-space: pre;" direction="ltr">main.js</text></g><g stroke-linecap="round" transform="translate(599.04296875 294.5) rotate(0 36.2578125 63.380859375)"><path d="M-1.6 -0.32 C29.32 -1.35, 56.62 -1.79, 71.99 1.05 M-0.64 -0.85 C15.45 0.12, 30.51 0.27, 71.83 -0.94 M71.5 1.52 C74.42 40.41, 72.2 79.08, 72.98 127.5 M72.19 0.25 C72.89 35.23, 74.36 70.56, 71.98 125.88 M71.43 127.93 C56.06 127.29, 42.01 127.99, 1.69 124.88 M73.1 127.03 C53.88 125.96, 34.66 126.59, -0.94 126.43 M-0.16 125.03 C-2.9 94.19, 0.53 62.71, 1.85 -0.35 M-0.27 127.24 C1.12 79.67, 0.55 33.07, -0.49 -0.77" stroke="#000000" stroke-width="1" fill="none"></path></g><g transform="translate(608.30078125 332.880859375) rotate(0 27 25)"><text x="27" y="18" font-family="Virgil, Segoe UI Emoji" font-size="20px" fill="#000000" text-anchor="middle" style="white-space: pre;" direction="ltr">index.</text><text x="27" y="43" font-family="Virgil, Segoe UI Emoji" font-size="20px" fill="#000000" text-anchor="middle" style="white-space: pre;" direction="ltr">html</text></g><g stroke-linecap="round"><g transform="translate(432.453125 366.359375) rotate(0 38.41201148493684 1.1712331348052203)"><path d="M0.6 0.91 C13.46 1.26, 64.35 1.92, 77.36 2 M-0.54 0.34 C12.12 0.38, 63.1 0.6, 76.27 0.42" stroke="#000000" stroke-width="1" fill="none"></path></g><g transform="translate(432.453125 366.359375) rotate(0 38.41201148493684 1.1712331348052203)"><path d="M49.63 10.32 C58.81 9.08, 66.75 2.41, 76.82 1.88 M47.42 9.92 C58.73 7.28, 68 4.17, 76.16 -0.55" stroke="#000000" stroke-width="1" fill="none"></path></g><g transform="translate(432.453125 366.359375) rotate(0 38.41201148493684 1.1712331348052203)"><path d="M49.56 -10.2 C58.74 -4.89, 66.71 -5.01, 76.82 1.88 M47.35 -10.6 C58.73 -5.91, 68.02 -1.68, 76.16 -0.55" stroke="#000000" stroke-width="1" fill="none"></path></g></g><g transform="translate(552.11328125 238.8203125) rotate(0 39.5 12.5)"><text x="0" y="18" font-family="Virgil, Segoe UI Emoji" font-size="20px" fill="#000000" text-anchor="start" style="white-space: pre;" direction="ltr">Browser</text></g><g stroke-linecap="round"><g transform="translate(500.8359375 418.3359375) rotate(0 -42.23537955587267 0.8936147217219457)"><path d="M1.08 -0.73 C-13.12 -0.46, -70.14 1.15, -84.56 1.58 M0.19 1.5 C-14.24 1.88, -71.68 2.31, -85.55 2.52" stroke="#000000" stroke-width="1" fill="none"></path></g><g transform="translate(500.8359375 418.3359375) rotate(0 -42.23537955587267 0.8936147217219457)"><path d="M-58.69 -8.19 C-69.33 -5.67, -78.76 -1.65, -87.49 2.35 M-56.78 -8.08 C-65.64 -4.52, -72.75 -3.17, -84.69 2.3" stroke="#000000" stroke-width="1" fill="none"></path></g><g transform="translate(500.8359375 418.3359375) rotate(0 -42.23537955587267 0.8936147217219457)"><path d="M-58.46 12.33 C-69.18 7.59, -78.69 4.34, -87.49 2.35 M-56.56 12.44 C-65.34 10.37, -72.52 6.08, -84.69 2.3" stroke="#000000" stroke-width="1" fill="none"></path></g></g><g stroke-linecap="round" transform="translate(678.17578125 361.27734375) rotate(0 43.09765625 60.65234375)"><path d="M-0.3 -1.2 C31.39 -0.53, 61.1 -0.58, 85.41 -0.35 M0.56 0.41 C27.26 0.66, 54.42 -0.48, 85.64 0.01 M84.2 -0.01 C88.45 41.5, 85.99 82.44, 87.27 119.72 M86.49 0.1 C85.86 24.25, 87.34 49.76, 85.51 120.82 M85.19 121.67 C58.99 120.86, 29.69 121.61, -0.89 119.59 M85.92 121.42 C55.42 120.98, 24.31 120.83, 0.84 120.77 M-1.14 119.96 C-1.07 87.17, 0.41 48.2, -1.19 0.53 M-0.86 120.53 C-1.82 84.29, -2.16 49.77, 0 0.02" stroke="#000000" stroke-width="1" fill="none"></path></g><g transform="translate(687.0390625 380.1484375) rotate(0 32.5 12.5)"><text x="0" y="18" font-family="Virgil, Segoe UI Emoji" font-size="20px" fill="#000000" text-anchor="start" style="white-space: pre;" direction="ltr">main.js</text></g><g stroke-linecap="round"><g transform="translate(591.19140625 198.90625) rotate(0 -4.6520836145198246 -44.44678284200374)"><path d="M0.32 -1.05 C-0.97 -15.85, -7.35 -75.36, -8.85 -89.91 M-0.97 1.02 C-2.29 -13.56, -8.26 -73.62, -9.62 -88.84" stroke="#000000" stroke-width="1" fill="none"></path></g><g transform="translate(591.19140625 198.90625) rotate(0 -4.6520836145198246 -44.44678284200374)"><path d="M1.51 -61.2 C-0.64 -66.44, -0.7 -72.58, -10.38 -87.25 M2.5 -61.24 C-1.03 -70.83, -5.41 -80.8, -10.1 -88.1" stroke="#000000" stroke-width="1" fill="none"></path></g><g transform="translate(591.19140625 198.90625) rotate(0 -4.6520836145198246 -44.44678284200374)"><path d="M-18.92 -59.26 C-16.84 -64.95, -12.69 -71.49, -10.38 -87.25 M-17.93 -59.3 C-13.92 -69.54, -10.77 -80.23, -10.1 -88.1" stroke="#000000" stroke-width="1" fill="none"></path></g></g><g stroke-linecap="round" transform="translate(460.99609375 10) rotate(0 100.140625 33.87109375)"><path d="M0.96 -0.99 C59.23 0.61, 118.84 -0.88, 198.74 0.66 M0.56 0.54 C43.77 1.3, 88.82 0.71, 200.96 0.41 M198.85 1.42 C200.99 23.59, 198.88 49.03, 201.82 66.29 M200.36 0.58 C199.92 13.31, 199.65 27.97, 199.88 68.22 M199.99 67.07 C142.2 71.16, 85.74 70.33, 0.37 68.51 M200.37 68.36 C134.2 65.61, 67.91 66, -0.12 68.56 M-1.45 69.15 C0.4 41.02, 1.68 16.75, -1.62 1.44 M-0.96 67.7 C-0.96 42.2, 0.3 15.56, -0.05 0.68" stroke="#000000" stroke-width="1" fill="none"></path></g><g transform="translate(482.63671875 30.0390625) rotate(0 80.5 12.5)"><text x="0" y="18" font-family="Virgil, Segoe UI Emoji" font-size="20px" fill="#000000" text-anchor="start" style="white-space: pre;" direction="ltr">rickandmorty.com</text></g><g stroke-linecap="round"><g transform="translate(621.578125 122.34765625) rotate(0 4.743869138793116 36.565323681174775)"><path d="M-0.16 0.99 C1.68 13.3, 9.29 60.91, 11.18 72.67 M-1.7 0.46 C0.02 12.55, 8.51 59.03, 10.59 71.08" stroke="#000000" stroke-width="1" fill="none"></path></g><g transform="translate(621.578125 122.34765625) rotate(0 4.743869138793116 36.565323681174775)"><path d="M-2.8 46.26 C1.75 54.51, 4.6 62.52, 10.58 69.54 M-4.84 44.9 C0.52 52.85, 4.65 61.44, 10.86 70.3" stroke="#000000" stroke-width="1" fill="none"></path></g><g transform="translate(621.578125 122.34765625) rotate(0 4.743869138793116 36.565323681174775)"><path d="M17.41 42.67 C15.53 52.03, 12.01 61.17, 10.58 69.54 M15.36 41.31 C14.29 50.51, 11.97 60.24, 10.86 70.3" stroke="#000000" stroke-width="1" fill="none"></path></g></g><g stroke-linecap="round"><g transform="translate(513.2265625 510.9921875) rotate(0 -74.12594184058719 39.56118445677558)"><path d="M-0.27 0.64 C-25.09 13.65, -124.11 66.05, -148.88 79.2 M1.79 -0.07 C-23.23 13.1, -124.77 64.48, -150.04 77.44" stroke="#000000" stroke-width="1" fill="none"></path></g><g transform="translate(513.2265625 510.9921875) rotate(0 -74.12594184058719 39.56118445677558)"><path d="M-128.52 54.81 C-134.48 61.48, -140.24 68.58, -149.34 78.58 M-128.72 55.82 C-134.95 60.15, -138.52 66.6, -149.7 77.61" stroke="#000000" stroke-width="1" fill="none"></path></g><g transform="translate(513.2265625 510.9921875) rotate(0 -74.12594184058719 39.56118445677558)"><path d="M-119.2 73.1 C-128.19 74.15, -136.8 75.66, -149.34 78.58 M-119.41 74.11 C-127.97 73.98, -133.78 76.03, -149.7 77.61" stroke="#000000" stroke-width="1" fill="none"></path></g></g><g stroke-linecap="round" transform="translate(240.3046875 725.9453125) rotate(0 141.4296875 75.681640625)"><path d="M1.18 1.04 C69.93 0.43, 138.8 0.97, 282.77 0.83 M0.23 -0.63 C97.86 0.08, 195.23 1.08, 282.54 -0.58 M283.53 0.01 C279.71 44.35, 282.94 87.86, 282.2 150.81 M282.78 -0.56 C283.59 42.46, 282.34 84.49, 281.87 150.53 M282.07 152.49 C198.01 151.85, 113.06 151.18, -0.42 151.09 M282.49 151.3 C195.07 150.06, 108.48 149.06, -0.31 151.86 M-1.69 150.28 C-1.23 97.74, -0.97 42.73, 0.66 0.16 M0.22 150.82 C-0.47 97.02, -0.87 42.24, -0.53 0.6" stroke="#000000" stroke-width="1" fill="none"></path></g><g stroke-linecap="round" transform="translate(755.96875 707.8765847784362) rotate(0 42.078125 33.14178573578192)"><path d="M1.4 -1.69 C29.66 -1.25, 61.61 -0.99, 83.03 0.66 M-0.71 0.22 C25.37 -0.52, 52.46 -0.92, 84.95 -0.53 M85.61 -1.04 C84.2 23.93, 85.91 46.6, 85.29 64.81 M83.86 -0.19 C85.39 23.68, 84.39 47.2, 84.58 65.38 M85.29 64.57 C57.17 67.09, 28.24 67.45, 0.79 64.77 M84.39 65.57 C67.28 66.07, 49.25 65.72, 0.15 66.03 M-1.66 67.81 C-0.8 44.99, -0.31 20.95, 1.06 -1.43 M-0.64 65.85 C0.89 51.93, 1.1 38.35, 0.51 0.26" stroke="#000000" stroke-width="1" fill="none"></path></g><g transform="translate(767.5919568575785 716.1116594801642) rotate(0 34 7)"><text x="0" y="10" font-family="Virgil, Segoe UI Emoji" font-size="11.526403081697074px" fill="#000000" text-anchor="start" style="white-space: pre;" direction="ltr">persons.json</text></g><g transform="translate(346.48046875 774.41796875) rotate(0 19.5 12.5)"><text x="0" y="18" font-family="Virgil, Segoe UI Emoji" font-size="20px" fill="#000000" text-anchor="start" style="white-space: pre;" direction="ltr">API</text></g><g stroke-linecap="round" transform="translate(633.15234375 682.4375) rotate(0 112.556640625 66.119140625)"><path d="M-0.17 -1.46 C45.73 -0.01, 94.19 0, 225.97 -0.85 M0.62 -0.17 C87.35 -0.03, 175.54 -0.21, 224.29 -0.81 M227.01 1.97 C225.71 49.32, 225.58 98.51, 224.08 133.54 M224.2 0.39 C225.46 37.75, 225.05 74.84, 224.25 131.36 M225.01 132.78 C157.92 132.24, 88.89 133.81, -1.54 132.56 M224.28 132.77 C145.34 130.17, 64.81 129.66, -0.01 132.06 M-1.73 131.14 C-1.94 99.44, 0.13 63.43, 0.57 1.63 M0.73 132.95 C-1.33 91.46, 0.34 50.03, -0.2 -0.81" stroke="#000000" stroke-width="1" fill="none"></path></g><g transform="translate(657.05078125 699.46484375) rotate(0 16 12.5)"><text x="0" y="18" font-family="Virgil, Segoe UI Emoji" font-size="20px" fill="#000000" text-anchor="start" style="white-space: pre;" direction="ltr">DB</text></g><g transform="translate(255.51953125 745.14453125) rotate(0 34 12.5)"><text x="0" y="18" font-family="Virgil, Segoe UI Emoji" font-size="20px" fill="#000000" text-anchor="start" style="white-space: pre;" direction="ltr">node.js</text></g><g transform="translate(10 573.8828125) rotate(0 176 12.5)"><text x="0" y="18" font-family="Virgil, Segoe UI Emoji" font-size="20px" fill="#000000" text-anchor="start" style="white-space: pre;" direction="ltr">GET http://oktopoden.de/persons/4</text></g><g stroke-linecap="round"><g transform="translate(568.78515625 732.8203125) rotate(0 14.618983374582626 -0.03454114814286413)"><path d="M0.26 0.18 C5.07 0.15, 23.29 -0.58, 28.07 -0.64 M-1.06 -0.77 C4.19 -0.6, 25.44 0.37, 30.3 0.7" stroke="#000000" stroke-width="1" fill="none"></path></g><g transform="translate(568.78515625 732.8203125) rotate(0 14.618983374582626 -0.03454114814286413)"><path d="M16.65 3.81 C19.21 3.83, 22.99 1.64, 29.57 1.49 M16.51 5.06 C21.6 2.93, 26.46 2.35, 30.65 0.14" stroke="#000000" stroke-width="1" fill="none"></path></g><g transform="translate(568.78515625 732.8203125) rotate(0 14.618983374582626 -0.03454114814286413)"><path d="M17.19 -6.09 C19.59 -3.76, 23.24 -3.66, 29.57 1.49 M17.04 -4.84 C21.84 -3.34, 26.5 -0.3, 30.65 0.14" stroke="#000000" stroke-width="1" fill="none"></path></g></g><g stroke-linecap="round"><g transform="translate(593.92578125 694.37890625) rotate(0 -16.58138500238772 -0.34107525606640365)"><path d="M-0.59 -0.13 C-6.36 -0.38, -28.06 -0.72, -33.43 -0.39 M1.29 -1.24 C-4.74 -0.88, -28.68 0.32, -34.46 0.56" stroke="#000000" stroke-width="1" fill="none"></path></g><g transform="translate(593.92578125 694.37890625) rotate(0 -16.58138500238772 -0.34107525606640365)"><path d="M-19.27 -6.06 C-26.68 -2.78, -29.58 0.18, -33.84 -0.36 M-19.68 -6.19 C-23.65 -3.57, -29.96 -1.58, -34.08 0.31" stroke="#000000" stroke-width="1" fill="none"></path></g><g transform="translate(593.92578125 694.37890625) rotate(0 -16.58138500238772 -0.34107525606640365)"><path d="M-18.74 5.31 C-26.47 4.1, -29.58 2.56, -33.84 -0.36 M-19.15 5.19 C-23.39 3.91, -29.88 2, -34.08 0.31" stroke="#000000" stroke-width="1" fill="none"></path></g></g><g stroke-linecap="round"><g transform="translate(502.44921875 620.64453125) rotate(0 32.53811914473772 -47.468909563482754)"><path d="M-0.92 -1 C10.09 -16.99, 54.9 -80.31, 66 -96.02 M0.8 1.09 C11.63 -14.67, 54.24 -78.03, 64.87 -94.41" stroke="#000000" stroke-width="1" fill="none"></path></g><g transform="translate(502.44921875 620.64453125) rotate(0 32.53811914473772 -47.468909563482754)"><path d="M56.18 -65.82 C60.17 -74.86, 63.42 -80.35, 64.57 -95.5 M57.91 -64.43 C59.9 -72.25, 60.61 -77.4, 64.54 -93.74" stroke="#000000" stroke-width="1" fill="none"></path></g><g transform="translate(502.44921875 620.64453125) rotate(0 32.53811914473772 -47.468909563482754)"><path d="M39.07 -77.15 C48.05 -82.75, 56.3 -84.93, 64.57 -95.5 M40.8 -75.76 C46.69 -80.93, 51.19 -83.57, 64.54 -93.74" stroke="#000000" stroke-width="1" fill="none"></path></g></g><g transform="translate(586.03125 550.55078125) rotate(0 50 37.5)"><text x="0" y="18" font-family="Virgil, Segoe UI Emoji" font-size="20px" fill="#000000" text-anchor="start" style="white-space: pre;" direction="ltr">name: Rick</text><text x="0" y="43" font-family="Virgil, Segoe UI Emoji" font-size="20px" fill="#000000" text-anchor="start" style="white-space: pre;" direction="ltr">id: 4,</text><text x="0" y="68" font-family="Virgil, Segoe UI Emoji" font-size="20px" fill="#000000" text-anchor="start" style="white-space: pre;" direction="ltr">...</text></g><g stroke-linecap="round"><g transform="translate(541.84375 523.203125) rotate(0 -84.59232546837535 48.72985848418725)"><path d="M0.74 0.54 C-27.22 16.97, -140.45 81.64, -168.77 97.69 M-0.33 -0.23 C-28.4 15.99, -142.19 80.37, -169.92 96.19" stroke="#000000" stroke-width="1" fill="none"></path></g><g transform="translate(541.84375 523.203125) rotate(0 -84.59232546837535 48.72985848418725)"><path d="M-149.59 72.68 C-152.89 77.05, -158.48 81.76, -168.67 95.57 M-150.06 73.47 C-157.9 81.75, -165.71 92.12, -169.86 96.84" stroke="#000000" stroke-width="1" fill="none"></path></g><g transform="translate(541.84375 523.203125) rotate(0 -84.59232546837535 48.72985848418725)"><path d="M-139.45 90.53 C-144.8 91.1, -152.59 91.95, -168.67 95.57 M-139.92 91.31 C-151.78 92.61, -163.6 95.92, -169.86 96.84" stroke="#000000" stroke-width="1" fill="none"></path></g></g><g transform="translate(15.01171875 613.484375) rotate(0 175.5 12.5)"><text x="0" y="18" font-family="Virgil, Segoe UI Emoji" font-size="20px" fill="#000000" text-anchor="start" style="white-space: pre;" direction="ltr">PUT http://oktopoden.de/persons/4</text></g><g transform="translate(12.71875 644.765625) rotate(0 195.5 12.5)"><text x="0" y="18" font-family="Virgil, Segoe UI Emoji" font-size="20px" fill="#000000" text-anchor="start" style="white-space: pre;" direction="ltr">DELETE http://oktopoden.de/persons/4</text></g><g transform="translate(11.859375 681.3861083984375) rotate(0 175 12.5)"><text x="0" y="18" font-family="Virgil, Segoe UI Emoji" font-size="20px" fill="#000000" text-anchor="start" style="white-space: pre;" direction="ltr">POST http://oktopoden.de/persons/</text></g><g transform="translate(885.140625 679.0618896484375) rotate(0 36 62.5)"><text x="0" y="18" font-family="Virgil, Segoe UI Emoji" font-size="20px" fill="#000000" text-anchor="start" style="white-space: pre;" direction="ltr">CRUD</text><text x="0" y="43" font-family="Virgil, Segoe UI Emoji" font-size="20px" fill="#000000" text-anchor="start" style="white-space: pre;" direction="ltr">Create</text><text x="0" y="68" font-family="Virgil, Segoe UI Emoji" font-size="20px" fill="#000000" text-anchor="start" style="white-space: pre;" direction="ltr">Read</text><text x="0" y="93" font-family="Virgil, Segoe UI Emoji" font-size="20px" fill="#000000" text-anchor="start" style="white-space: pre;" direction="ltr">Update</text><text x="0" y="118" font-family="Virgil, Segoe UI Emoji" font-size="20px" fill="#000000" text-anchor="start" style="white-space: pre;" direction="ltr">Delete</text></g><g transform="translate(639.07421875 644.0892333984375) rotate(0 44.5 12.5)"><text x="0" y="18" font-family="Virgil, Segoe UI Emoji" font-size="20px" fill="#000000" text-anchor="start" style="white-space: pre;" direction="ltr">MongoDB</text></g><g transform="translate(116.0703125 759.67919921875) rotate(0 50.5 12.5)"><text x="0" y="18" font-family="Virgil, Segoe UI Emoji" font-size="20px" fill="#000000" text-anchor="start" style="white-space: pre;" direction="ltr">Express.js</text></g></svg>